<svg xmlns="http://www.w3.org/2000/svg" viewBox="0 0 692.96 148"><defs><style>.cls-1{fill:#4f6f52;}</style></defs><g id="Layer_2" data-name="Layer 2"><g id="Layer_1-2" data-name="Layer 1"><path class="cls-1" d="M26.56,46.61h3.76A16.83,16.83,0,0,1,46.2,57.83L66.79,116A1.91,1.91,0,0,1,65,118.58h0a18.63,18.63,0,0,1-17.75-13l-.17-.52a1.9,1.9,0,0,0-1.82-1.32H21.51a1.9,1.9,0,0,0-1.81,1.31l-.37,1.12A18,18,0,0,1,2.24,118.58h0A1.92,1.92,0,0,1,.43,116L24.76,47.88A1.91,1.91,0,0,1,26.56,46.61Zm.31,44.77H40a1.91,1.91,0,0,0,1.82-2.5L35.36,68.67a1.91,1.91,0,0,0-3.64,0L25.05,88.87A1.91,1.91,0,0,0,26.87,91.38Z"/><path class="cls-1" d="M102.05,65.31a15.93,15.93,0,0,1,7,5.81.66.66,0,0,0,1.19-.38V66a.65.65,0,0,1,.65-.65h2.52a10.4,10.4,0,0,1,10.4,10.4v40.09q0,10.29-3.47,15.52-6,9-22.85,9-10.2,0-16.65-4a14.6,14.6,0,0,1-7-11.23.66.66,0,0,1,.66-.73h7a14.06,14.06,0,0,1,9,3.21l.37.31q2.25,1.91,7.57,1.9,7.52,0,10.06-5,1.67-3.23,1.66-10.84v-3.42a16.92,16.92,0,0,1-4.3,5.13q-4.14,3.18-10.79,3.17-10.24,0-16.38-7.2t-6.13-19.5q0-11.87,5.9-20t16.73-8.08A18.32,18.32,0,0,1,102.05,65.31Zm4.74,38.16q3.36-3.69,3.36-11.75,0-7.56-3.19-11.52a10.36,10.36,0,0,0-8.53-4q-7.29,0-10.07,6.88a24.55,24.55,0,0,0-1.45,9,20.66,20.66,0,0,0,1.55,8.26,10.14,10.14,0,0,0,10.12,6.73A10.65,10.65,0,0,0,106.79,103.47Z"/><path class="cls-1" d="M166.37,64.11l1.2.08V76a2.24,2.24,0,0,1-2.34,2.24h0c-.69,0-1.24,0-1.66,0q-8.4,0-11.28,5.47c-1.08,2-1.61,5.21-1.61,9.47v23.23a2.21,2.21,0,0,1-2.21,2.21h-9.6a2.21,2.21,0,0,1-2.21-2.21v-51h11a2.28,2.28,0,0,1,2.29,2.29h0a2.21,2.21,0,0,0,3.89,1.43,13.92,13.92,0,0,1,1.73-1.72,15.28,15.28,0,0,1,10.15-3.27Z"/><path class="cls-1" d="M220.11,112.07q-6.74,8.31-20.46,8.32t-20.46-8.32a30.83,30.83,0,0,1-6.74-20,31,31,0,0,1,6.74-20q6.74-8.45,20.46-8.44t20.46,8.44a31,31,0,0,1,6.74,20A30.83,30.83,0,0,1,220.11,112.07ZM209,104.38Q212.25,100,212.25,92T209,79.73q-3.28-4.31-9.38-4.31t-9.4,4.31q-3.3,4.32-3.29,12.31t3.29,12.34a11.11,11.11,0,0,0,9.4,4.34Q205.71,108.72,209,104.38Z"/><path class="cls-1" d="M286.25,87.43q-6.31,5.26-18.05,5.27h-15v10.94a14.94,14.94,0,0,1-14.94,14.94h0V65.27a18.66,18.66,0,0,1,18.66-18.66h12.25q10.68,0,17,5.56t6.35,17.24Q292.57,82.16,286.25,87.43ZM274.77,61.5q-2.85-2.39-8-2.39h-6.55a7,7,0,0,0-7,7V80.3h13.56q5.14,0,8-2.59c1.91-1.72,2.86-4.46,2.86-8.2S276.68,63.1,274.77,61.5Z"/><path class="cls-1" d="M305,65.36A12.34,12.34,0,0,1,317.38,77.7V97.44a16.9,16.9,0,0,0,1.06,6.83c1.27,2.71,3.74,4.06,7.44,4.06q7.1,0,9.71-5.77A20.85,20.85,0,0,0,337,94.31V77.55a12.19,12.19,0,0,1,12.19-12.19h0a1.91,1.91,0,0,1,1.92,1.91v51.31h-6a7.52,7.52,0,0,1-7.52-7.52h0c-.13.16-.45.65-1,1.47a9.77,9.77,0,0,1-1.85,2.14,19.35,19.35,0,0,1-6.31,4,21.61,21.61,0,0,1-7.13,1.07q-11.79,0-15.88-8.49-2.28-4.7-2.28-13.82V67.27A1.9,1.9,0,0,1,305,65.36Z"/><path class="cls-1" d="M376.89,118.58H366.8a1.92,1.92,0,0,1-1.92-1.91V48.52a1.91,1.91,0,0,1,1.92-1.91h0a12,12,0,0,1,12,12v58.06A1.92,1.92,0,0,1,376.89,118.58Z"/><path class="cls-1" d="M393.9,101.59a15.27,15.27,0,0,1,11.15,5.24l0,0q2.6,2.79,9.62,2.78a14.66,14.66,0,0,0,6.55-1.22,4.09,4.09,0,0,0,.47-7.22q-2-1.23-14.56-4.2-9.07-2.25-12.78-5.62t-3.71-9.57a16.6,16.6,0,0,1,5.79-12.67q5.81-5.3,16.32-5.3,10,0,16.27,4t7.2,13.58a.15.15,0,0,1-.15.17H429a10.34,10.34,0,0,1-8.12-4.22l0,0q-2.31-2.83-7.84-2.83-4.54,0-6.48,1.41a4.1,4.1,0,0,0-1.94,3.32,3.63,3.63,0,0,0,2.06,3.47q2.06,1.13,14.53,3.86,8.31,2,12.46,5.91a13.39,13.39,0,0,1,4.11,10,16.15,16.15,0,0,1-5.9,12.91q-5.89,5-18.22,5-12.58,0-18.57-5.3a17.17,17.17,0,0,1-6-13.35.14.14,0,0,1,.15-.15Z"/><path class="cls-1" d="M482.67,66.44a21.62,21.62,0,0,1,9.2,7.87,26.19,26.19,0,0,1,4.24,11,59.16,59.16,0,0,1,.47,8.64,1.93,1.93,0,0,1-1.91,1.93H459.89A1.89,1.89,0,0,0,458,98q.87,6.31,5.38,9.1a14.18,14.18,0,0,0,7.67,2,11.83,11.83,0,0,0,7.73-2.44l0,0a15.16,15.16,0,0,1,9.6-3.64h5a1.92,1.92,0,0,1,1.8,2.57,19.91,19.91,0,0,1-4.56,7.05q-7.14,7.77-20,7.77a29.07,29.07,0,0,1-18.75-6.55q-8.12-6.56-8.12-21.31,0-13.83,7.33-21.21t19-7.38A30.15,30.15,0,0,1,482.67,66.44Zm-20.82,12a13.35,13.35,0,0,0-3.19,5.77,1.94,1.94,0,0,0,1.84,2.47h19.43a1.93,1.93,0,0,0,1.87-2.35,10.49,10.49,0,0,0-3.39-6.06,12.14,12.14,0,0,0-8.25-2.87Q464.8,75.42,461.85,78.46Z"/><path class="cls-1" d="M0,145.19c162.23-3.22,327-3,489.22.11l15.78.39-15.78.36c-162.24,2.76-327,2.68-489.22-.86Z"/><path class="cls-1" d="M661.4,36.67C636.54,47.44,611,48,585.23,47c-24.81-.94-44.86,9.34-61.8,26.66-3.29,3.36-6.23,7.06-9.68,11A51.68,51.68,0,0,1,516.46,69c7.34-24.35,21.84-42.8,45.34-53.37,11.91-5.35,24.66-5.57,37.41-4.47,10.55.91,21.07,2.28,31.61,3.33,22.1,2.19,43.27.24,61.28-14.45.47.35.86.5.86.66-.15,30.39-6.59,59.12-25.29,83.76C646.2,112.71,617.15,124,582,120c-12.35-1.41-24.44-4.23-36.6-6.63q-21.37-4.2-32.65,14.49a60.68,60.68,0,0,0-6.66,14.84c-.71,2.57-1.89,4.6-4.88,3.84s-3-3.09-2.55-5.7c4-22.83,15.64-41.19,33-56.17,5.13-4.43,11-7.92,16.44-11.91,17.42-12.81,37.27-16,57.93-17.13,13.1-.74,26.18-1.68,38.34-7.46A67,67,0,0,0,661.4,36.67Z"/></g></g></svg>