<svg xmlns="http://www.w3.org/2000/svg" viewBox="0 0 575.67 434.05"><defs><style>.cls-1{fill:#4f6f52;}</style></defs><g id="Layer_2" data-name="Layer 2"><g id="Layer_1-2" data-name="Layer 1"><path class="cls-1" d="M482.28,108.51c-73.57,31.87-149.19,33.38-225.43,30.5C183.44,136.23,124.11,166.63,74,217.89c-9.72,10-18.41,20.9-28.62,32.58-.15-16.8,3.58-31.73,8-46.4C75.08,132,118,77.41,187.53,46.14c35.23-15.84,73-16.48,110.7-13.23,31.23,2.7,62.35,6.74,93.55,9.84,65.39,6.49,128,.73,181.34-42.75,1.41,1,2.56,1.49,2.55,1.94-.45,90-19.5,175-74.83,247.88C437.31,333.55,351.33,367,247.29,355.05,210.72,350.86,175,342.51,139,335.43Q75.7,323,42.34,378.31C34,392.17,27,406.62,22.63,422.22c-2.11,7.59-5.59,13.6-14.46,11.36S-.72,424.43.63,416.72c11.81-67.58,46.3-121.89,97.66-166.24,15.2-13.11,32.62-23.43,48.66-35.23,51.56-37.94,110.31-47.24,171.45-50.7,38.75-2.2,77.46-5,113.46-22.08A198.57,198.57,0,0,0,482.28,108.51Z"/></g></g></svg>